<?xml version="1.0" standalone="no"?>
<!DOCTYPE svg PUBLIC "-//W3C//DTD SVG 20010904//EN"
 "http://www.w3.org/TR/2001/REC-SVG-20010904/DTD/svg10.dtd">
<svg version="1.0" xmlns="http://www.w3.org/2000/svg"
 width="500.000000pt" height="500.000000pt" viewBox="0 0 500.000000 500.000000"
 preserveAspectRatio="xMidYMid meet">
<metadata>
Created by potrace 1.14, written by Peter Selinger 2001-2017
</metadata>
<g transform="translate(0.000000,500.000000) scale(0.100000,-0.100000)"
fill="#000000" stroke="none">
<path d="M2330 4997 c-3 -3 -39 -8 -80 -12 -41 -4 -82 -8 -90 -9 -8 -2 -37 -6
-65 -11 -77 -12 -81 -13 -188 -40 -215 -56 -513 -185 -682 -296 -560 -367
-923 -900 -1054 -1544 -28 -140 -31 -162 -38 -318 l-6 -138 127 3 127 3 4 100
c9 237 73 515 166 723 44 97 54 119 98 197 176 316 420 572 739 774 74 47 197
109 335 169 119 52 357 110 572 138 66 8 312 9 400 0 733 -71 1378 -519 1700
-1181 110 -226 177 -454 201 -681 4 -38 8 -78 9 -89 1 -11 3 -50 4 -87 l1 -68
130 0 129 0 -4 83 c-18 308 -63 525 -161 775 -170 437 -442 783 -856 1089
-253 187 -691 358 -1018 399 -30 4 -66 9 -80 11 -34 6 -415 15 -420 10z"/>
<path d="M1170 3143 l0 -704 73 3 72 3 1 310 c1 171 2 312 3 315 0 3 146 5
323 4 178 -1 328 1 333 3 6 2 10 31 10 66 l-1 62 -334 5 -335 5 0 248 0 247
341 0 c265 0 343 3 346 13 3 6 4 37 4 67 l-1 55 -417 0 -418 1 0 -703z"/>
<path d="M2754 3835 c74 -175 500 -1166 506 -1180 6 -11 37 -83 69 -160 l60
-140 15 35 c8 19 150 352 316 739 165 387 298 706 295 710 -4 3 -37 6 -75 7
-64 2 -68 1 -80 -24 -7 -15 -44 -101 -82 -192 -38 -91 -76 -178 -83 -195 -8
-16 -75 -176 -151 -355 -75 -179 -141 -334 -146 -344 -9 -17 -14 -11 -35 40
-13 32 -35 83 -49 112 -13 29 -24 55 -24 57 0 3 -10 27 -21 53 -31 68 -32 71
-199 467 -84 198 -157 365 -162 370 -12 14 -160 14 -154 0z"/>
<path d="M135 2273 c6 -132 17 -235 41 -358 172 -886 846 -1604 1721 -1836 93
-25 195 -46 253 -53 25 -3 77 -10 115 -15 157 -20 489 -7 650 25 11 2 33 7 48
9 300 55 664 215 922 405 272 201 473 418 643 696 133 217 261 543 297 755 3
19 10 59 15 89 15 91 20 139 27 263 l6 117 -127 0 c-94 0 -126 -3 -127 -12 0
-7 -2 -38 -4 -68 -5 -78 -16 -197 -21 -228 -4 -26 -20 -111 -30 -162 -38 -193
-170 -501 -300 -695 -115 -174 -265 -339 -429 -474 -130 -108 -351 -243 -487
-297 -35 -14 -76 -32 -93 -39 -35 -16 -166 -57 -251 -79 -288 -74 -680 -78
-959 -10 -33 8 -69 16 -80 19 -107 22 -320 105 -455 177 -526 280 -920 785
-1059 1357 -30 123 -34 144 -47 246 -11 92 -12 105 -13 188 l-1 77 -129 0
-129 0 3 -97z"/>
<path d="M2070 2193 c-1 -37 -1 -1369 -1 -1381 1 -21 484 -11 566 12 324 90
539 380 522 706 -7 122 -12 145 -54 250 -54 133 -132 227 -253 305 -151 98
-259 122 -562 124 -204 2 -218 1 -218 -16z m458 -137 c125 -15 245 -74 333
-165 98 -101 146 -205 156 -342 21 -296 -177 -546 -473 -595 -43 -7 -302 -12
-320 -7 -8 3 -12 156 -11 558 l0 554 41 3 c63 5 215 1 274 -6z"/>
</g>
</svg>
